<svg width="83" height="83" viewBox="0 0 83 83" fill="none" xmlns="http://www.w3.org/2000/svg">
<rect width="83" height="83" rx="10" fill="#152323"/>
<path d="M49.15 23.3C49.15 28.4 42.85 31.4 42.85 31.4H48.85V38H32.65V32C32.65 32 41.05 26.9 41.05 24.2C41.05 23.3 40.45 22.7 39.4 22.7C36.85 22.7 35.05 24.35 35.05 24.35L32.2 19.85C32.2 19.85 34.9 16.55 40.6 16.55C45.85 16.55 49.15 19.85 49.15 23.3Z" fill="white"/>
<path d="M26.96 57.22H28.4V63.34H23.72V61H18.68V63.34H14V57.22H15.08C15.08 57.22 16.34 55.6 16.34 48.4H26.96V57.22ZM19.76 57.22H22.28V52.18H20.48C20.48 55.6 19.76 57.22 19.76 57.22ZM34.3323 56.5V57.4H39.7323V61H29.6523V48.4H39.3723V52H34.3323V52.9H39.0123V56.5H34.3323ZM46.0393 48.4V52.72H48.9193V48.4H53.5993V61H48.9193V56.68H46.0393V61H41.3593V48.4H46.0393ZM61.1558 61.18C58.2758 61.18 55.7558 61 55.7558 61V48.4H60.4358V52.09C60.4358 52.09 61.3358 52 62.0558 52C65.1158 52 66.9158 53.8 66.9158 56.59C66.9158 59.38 65.1158 61.18 61.1558 61.18ZM61.1558 55.42H60.4358V57.76H61.1558C61.7858 57.76 62.2358 57.31 62.2358 56.59C62.2358 55.87 61.7858 55.42 61.1558 55.42Z" fill="white"/>
</svg>
