<svg width="120" height="22" viewBox="0 0 120 22" fill="none" xmlns="http://www.w3.org/2000/svg">
<path d="M12.922 17.542H5.694L4.498 21H0.676L7.202 2.826H11.44L17.966 21H14.118L12.922 17.542ZM11.934 14.63L9.308 7.038L6.682 14.63H11.934ZM24.0453 1.76V21H20.4053V1.76H24.0453ZM31.8797 9.586V16.554C31.8797 17.0393 31.9923 17.3947 32.2177 17.62C32.4603 17.828 32.859 17.932 33.4137 17.932H35.1037V21H32.8157C29.7477 21 28.2137 19.5093 28.2137 16.528V9.586H26.4977V6.596H28.2137V3.034H31.8797V6.596H35.1037V9.586H31.8797ZM36.7857 13.746C36.7857 12.29 37.0717 10.9987 37.6437 9.872C38.2331 8.74533 39.0217 7.87867 40.0097 7.272C41.0151 6.66533 42.1331 6.362 43.3637 6.362C44.4384 6.362 45.3744 6.57867 46.1717 7.012C46.9864 7.44533 47.6364 7.99133 48.1217 8.65V6.596H51.7877V21H48.1217V18.894C47.6537 19.57 47.0037 20.1333 46.1717 20.584C45.3571 21.0173 44.4124 21.234 43.3377 21.234C42.1244 21.234 41.0151 20.922 40.0097 20.298C39.0217 19.674 38.2331 18.7987 37.6437 17.672C37.0717 16.528 36.7857 15.2193 36.7857 13.746ZM48.1217 13.798C48.1217 12.914 47.9484 12.16 47.6017 11.536C47.2551 10.8947 46.7871 10.4093 46.1977 10.08C45.6084 9.73333 44.9757 9.56 44.2997 9.56C43.6237 9.56 42.9997 9.72467 42.4277 10.054C41.8557 10.3833 41.3877 10.8687 41.0237 11.51C40.6771 12.134 40.5037 12.8793 40.5037 13.746C40.5037 14.6127 40.6771 15.3753 41.0237 16.034C41.3877 16.6753 41.8557 17.1693 42.4277 17.516C43.0171 17.8627 43.6411 18.036 44.2997 18.036C44.9757 18.036 45.6084 17.8713 46.1977 17.542C46.7871 17.1953 47.2551 16.71 47.6017 16.086C47.9484 15.4447 48.1217 14.682 48.1217 13.798ZM57.1888 4.88C56.5475 4.88 56.0102 4.68067 55.5768 4.282C55.1608 3.866 54.9528 3.35467 54.9528 2.748C54.9528 2.14133 55.1608 1.63867 55.5768 1.24C56.0102 0.823999 56.5475 0.615999 57.1888 0.615999C57.8302 0.615999 58.3588 0.823999 58.7748 1.24C59.2082 1.63867 59.4248 2.14133 59.4248 2.748C59.4248 3.35467 59.2082 3.866 58.7748 4.282C58.3588 4.68067 57.8302 4.88 57.1888 4.88ZM58.9828 6.596V21H55.3428V6.596H58.9828ZM74.9292 2.852V5.79H70.0932V21H66.4532V5.79H61.6172V2.852H74.9292ZM83.981 21.234C82.5943 21.234 81.3463 20.9307 80.237 20.324C79.1277 19.7 78.2523 18.8247 77.611 17.698C76.987 16.5713 76.675 15.2713 76.675 13.798C76.675 12.3247 76.9957 11.0247 77.637 9.898C78.2957 8.77133 79.1883 7.90467 80.315 7.298C81.4417 6.674 82.6983 6.362 84.085 6.362C85.4717 6.362 86.7283 6.674 87.855 7.298C88.9817 7.90467 89.8657 8.77133 90.507 9.898C91.1657 11.0247 91.495 12.3247 91.495 13.798C91.495 15.2713 91.157 16.5713 90.481 17.698C89.8223 18.8247 88.921 19.7 87.777 20.324C86.6503 20.9307 85.385 21.234 83.981 21.234ZM83.981 18.062C84.6397 18.062 85.255 17.906 85.827 17.594C86.4163 17.2647 86.8843 16.7793 87.231 16.138C87.5777 15.4967 87.751 14.7167 87.751 13.798C87.751 12.4287 87.387 11.38 86.659 10.652C85.9483 9.90667 85.073 9.534 84.033 9.534C82.993 9.534 82.1177 9.90667 81.407 10.652C80.7137 11.38 80.367 12.4287 80.367 13.798C80.367 15.1673 80.705 16.2247 81.381 16.97C82.0743 17.698 82.941 18.062 83.981 18.062ZM107.763 6.596V21H104.097V19.18C103.629 19.804 103.014 20.298 102.251 20.662C101.506 21.0087 100.691 21.182 99.8071 21.182C98.6804 21.182 97.6838 20.948 96.8171 20.48C95.9504 19.9947 95.2658 19.2927 94.7631 18.374C94.2778 17.438 94.0351 16.3287 94.0351 15.046V6.596H97.6751V14.526C97.6751 15.67 97.9611 16.554 98.5331 17.178C99.1051 17.7847 99.8851 18.088 100.873 18.088C101.878 18.088 102.667 17.7847 103.239 17.178C103.811 16.554 104.097 15.67 104.097 14.526V6.596H107.763ZM114.995 8.832C115.463 8.06933 116.069 7.47133 116.815 7.038C117.577 6.60467 118.444 6.388 119.415 6.388V10.21H118.453C117.309 10.21 116.442 10.4787 115.853 11.016C115.281 11.5533 114.995 12.4893 114.995 13.824V21H111.355V6.596H114.995V8.832Z" fill="white"/>
</svg>
