<svg width="122" height="33" viewBox="0 0 122 33" fill="none" xmlns="http://www.w3.org/2000/svg">
<path fill-rule="evenodd" clip-rule="evenodd" d="M14.4028 24.974V17.8836H12.0391V14.9291H14.4028V12.5653C14.4028 10.1229 15.9487 8.92139 18.127 8.92139C19.1704 8.92139 20.0678 8.99924 20.3294 9.03376V11.5861H18.8181C17.6334 11.5861 17.3573 12.1504 17.3573 12.9763V14.9291H20.311L19.7202 17.8828H17.3573L17.4047 24.974" fill="white"/>
<circle cx="16.0526" cy="16.9472" r="15.5526" stroke="white"/>
<path fill-rule="evenodd" clip-rule="evenodd" d="M57.3599 8.17163C58.3014 8.12828 58.6016 8.11865 60.9998 8.11865C63.3981 8.11865 63.6983 8.12909 64.639 8.17163C65.5797 8.21417 66.2218 8.36426 66.7836 8.58177C67.3719 8.8041 67.9057 9.15164 68.3471 9.60111C68.7966 10.0418 69.1433 10.5747 69.3649 11.1638C69.5832 11.7257 69.7325 12.3678 69.7758 13.3069C69.8192 14.25 69.8288 14.5501 69.8288 16.9476C69.8288 19.3459 69.8184 19.646 69.7758 20.5875C69.7333 21.5266 69.5832 22.1687 69.3649 22.7306C69.1433 23.3198 68.796 23.8536 68.3471 24.2949C67.9057 24.7444 67.3719 25.0911 66.7836 25.3126C66.2218 25.5309 65.5797 25.6802 64.6406 25.7236C63.6983 25.7669 63.3981 25.7765 60.9998 25.7765C58.6016 25.7765 58.3014 25.7661 57.3599 25.7236C56.4208 25.681 55.7787 25.5309 55.2169 25.3126C54.6277 25.0911 54.0939 24.7438 53.6526 24.2949C53.2034 23.854 52.8558 23.3204 52.634 22.7314C52.4165 22.1695 52.2672 21.5274 52.2239 20.5883C52.1805 19.6452 52.1709 19.3451 52.1709 16.9476C52.1709 14.5493 52.1813 14.2492 52.2239 13.3085C52.2664 12.3678 52.4165 11.7257 52.634 11.1638C52.8561 10.5748 53.204 10.0412 53.6534 9.60031C54.094 9.15124 54.6273 8.80365 55.2161 8.58177C55.7779 8.36426 56.42 8.21497 57.3591 8.17163H57.3599ZM64.5675 9.76084C63.6365 9.7183 63.3572 9.70947 60.9998 9.70947C58.6425 9.70947 58.3632 9.7183 57.4321 9.76084C56.5709 9.80017 56.1038 9.94384 55.7924 10.065C55.3806 10.2256 55.0861 10.4158 54.777 10.7248C54.4841 11.0098 54.2587 11.3567 54.1173 11.7401C53.9961 12.0515 53.8524 12.5187 53.8131 13.3799C53.7705 14.311 53.7617 14.5903 53.7617 16.9476C53.7617 19.3049 53.7705 19.5842 53.8131 20.5153C53.8524 21.3765 53.9961 21.8437 54.1173 22.1551C54.2585 22.5379 54.4841 22.8855 54.777 23.1704C55.062 23.4634 55.4095 23.6889 55.7924 23.8302C56.1038 23.9514 56.5709 24.095 57.4321 24.1344C58.3632 24.1769 58.6417 24.1857 60.9998 24.1857C63.358 24.1857 63.6365 24.1769 64.5675 24.1344C65.4288 24.095 65.8959 23.9514 66.2073 23.8302C66.6191 23.6696 66.9136 23.4794 67.2226 23.1704C67.5156 22.8855 67.7411 22.5379 67.8824 22.1551C68.0036 21.8437 68.1473 21.3765 68.1866 20.5153C68.2291 19.5842 68.238 19.3049 68.238 16.9476C68.238 14.5903 68.2291 14.311 68.1866 13.3799C68.1473 12.5187 68.0036 12.0515 67.8824 11.7401C67.7219 11.3284 67.5317 11.0338 67.2226 10.7248C66.9377 10.4319 66.5907 10.2065 66.2073 10.065C65.8959 9.94384 65.4288 9.80017 64.5675 9.76084V9.76084ZM59.8721 19.6693C60.5019 19.9315 61.2032 19.9669 61.8562 19.7694C62.5092 19.572 63.0734 19.154 63.4524 18.5868C63.8314 18.0196 64.0017 17.3384 63.9343 16.6595C63.8669 15.9807 63.5659 15.3463 63.0827 14.8648C62.7747 14.5569 62.4022 14.3212 61.9922 14.1746C61.5821 14.028 61.1447 13.9741 60.7113 14.0169C60.2779 14.0596 59.8594 14.1979 59.4859 14.4218C59.1124 14.6457 58.7932 14.9496 58.5513 15.3117C58.3093 15.6738 58.1507 16.085 58.0867 16.5158C58.0228 16.9465 58.0551 17.3861 58.1814 17.8028C58.3078 18.2196 58.5249 18.6031 58.8173 18.9259C59.1096 19.2486 59.4699 19.5025 59.8721 19.6693ZM57.7909 13.7387C58.2123 13.3173 58.7126 12.983 59.2632 12.7549C59.8138 12.5269 60.4039 12.4095 60.9998 12.4095C61.5958 12.4095 62.1859 12.5269 62.7365 12.7549C63.2871 12.983 63.7874 13.3173 64.2088 13.7387C64.6302 14.1601 64.9644 14.6604 65.1925 15.2109C65.4206 15.7615 65.5379 16.3516 65.5379 16.9476C65.5379 17.5436 65.4206 18.1337 65.1925 18.6843C64.9644 19.2348 64.6302 19.7351 64.2088 20.1565C63.3577 21.0076 62.2034 21.4857 60.9998 21.4857C59.7963 21.4857 58.642 21.0076 57.7909 20.1565C56.9399 19.3055 56.4617 18.1512 56.4617 16.9476C56.4617 15.744 56.9399 14.5897 57.7909 13.7387V13.7387ZM66.5444 13.0853C66.6489 12.9868 66.7325 12.8684 66.7903 12.737C66.8481 12.6056 66.879 12.4639 66.8811 12.3204C66.8832 12.1768 66.8564 12.0343 66.8025 11.9013C66.7485 11.7683 66.6684 11.6474 66.5669 11.5459C66.4654 11.4444 66.3445 11.3643 66.2115 11.3103C66.0785 11.2564 65.936 11.2296 65.7924 11.2317C65.6489 11.2338 65.5072 11.2647 65.3758 11.3225C65.2444 11.3803 65.126 11.4639 65.0275 11.5684C64.8359 11.7715 64.731 12.0412 64.7351 12.3204C64.7391 12.5995 64.8518 12.8661 65.0492 13.0635C65.2467 13.261 65.5133 13.3737 65.7924 13.3777C66.0716 13.3818 66.3413 13.2769 66.5444 13.0853V13.0853Z" fill="white"/>
<circle cx="60.9999" cy="16.9472" r="15.5526" stroke="white"/>
<path d="M114.375 12.1316L112.569 12.4325L113.773 10.9276L111.666 11.5296C108.957 8.51972 104.743 11.8306 105.947 14.5395C101.131 14.5395 98.7235 10.9276 98.7235 10.9276C98.7235 10.9276 96.9176 13.6365 99.9274 15.7434L98.1215 15.1414C98.1215 16.9474 99.3255 18.1513 101.432 18.7533H99.3255C100.529 21.1612 102.636 21.1612 102.636 21.1612C102.636 21.1612 100.83 22.6661 97.5195 22.6661C107.452 27.4819 113.472 18.4523 112.569 13.6365L114.375 12.1316Z" fill="white"/>
<circle cx="105.947" cy="16.9472" r="15.5526" stroke="white"/>
</svg>
